Coordinates
version=1
nRows=21
nColumns=12
inDegrees=yes

Units are S.I. units (second, meters, Newtons, ...)
Angles are in degrees

endheader
time	SC_y	SC_z	SC_x	AC_y	AC_z	AC_x	GH_y	GH_z	GH_yy	EL_x	PS_y
       0.0              -30.89         0.9167          31.33          35.53         -8.793         -11.34         -149.8           -7.6          144.2          118.1          50.13
  0.006595              -30.89         0.9218          31.33          35.53         -8.792         -11.34         -149.8         -7.593          144.2          118.1          50.14
   0.01319               -30.9         0.9271          31.33          35.53         -8.792         -11.34         -149.8         -7.585          144.2          118.1          50.14
   0.01979               -30.9         0.9329          31.34          35.53         -8.791         -11.34         -149.8         -7.576          144.1          118.1          50.15
   0.02638               -30.9         0.9389          31.34          35.53         -8.791         -11.34         -149.7         -7.567          144.1          118.1          50.16
   0.03298               -30.9         0.9454          31.34          35.53          -8.79         -11.34         -149.7         -7.557          144.1          118.1          50.18
   0.03957               -30.9         0.9524          31.34          35.53          -8.79         -11.34         -149.7         -7.547          144.0          118.1          50.19
   0.04617               -30.9         0.9598          31.35          35.53         -8.789         -11.34         -149.7         -7.535          144.0          118.1           50.2
   0.05276               -30.9         0.9677          31.35          35.53         -8.788         -11.34         -149.6         -7.523          143.9          118.1          50.21
   0.05936              -30.91         0.9762          31.35          35.53         -8.788         -11.34         -149.6         -7.511          143.9          118.0          50.23
   0.06595              -30.91         0.9854          31.36          35.54         -8.787         -11.34         -149.5         -7.497          143.8          118.0          50.24
   0.07255              -30.91         0.9952          31.36          35.54         -8.786         -11.34         -149.5         -7.482          143.7          118.0          50.26
   0.07914              -30.91          1.006          31.36          35.54         -8.785         -11.33         -149.4         -7.466          143.7          118.0          50.28
   0.08574              -30.92          1.017          31.37          35.54         -8.784         -11.33         -149.4         -7.449          143.6          118.0           50.3
   0.09233              -30.92           1.03          31.37          35.54         -8.783         -11.33         -149.3          -7.43          143.5          118.0          50.32
   0.09893              -30.92          1.043          31.38          35.54         -8.782         -11.33         -149.3         -7.409          143.4          117.9          50.34
    0.1055              -30.92          1.058          31.38          35.55         -8.781         -11.33         -149.2         -7.387          143.3          117.9          50.37
    0.1121              -30.93          1.074          31.39          35.55          -8.78         -11.33         -149.1         -7.363          143.2          117.9           50.4
    0.1187              -30.93          1.091          31.39          35.55         -8.778         -11.33         -149.1         -7.337          143.1          117.9          50.42
    0.1253              -30.94           1.11           31.4          35.55         -8.777         -11.32         -149.0         -7.308          143.0          117.8          50.46
    0.1319              -30.94          1.131          31.41          35.56         -8.775         -11.32         -148.9         -7.277          142.8          117.8          50.49
